<?xml version="1.0" standalone="no"?>
<!DOCTYPE svg PUBLIC "-//W3C//DTD SVG 20010904//EN"
 "http://www.w3.org/TR/2001/REC-SVG-20010904/DTD/svg10.dtd">
<svg version="1.0" xmlns="http://www.w3.org/2000/svg"
 width="612.000000pt" height="612.000000pt" viewBox="0 0 612.000000 612.000000"
 preserveAspectRatio="xMidYMid meet">

<g transform="translate(0.000000,612.000000) scale(0.100000,-0.100000)"
fill="#000000" stroke="none">
<path d="M2840 5399 c-275 -24 -581 -113 -835 -242 -459 -233 -829 -607 -1050
-1061 -115 -235 -184 -460 -222 -715 -21 -144 -23 -475 -5 -611 73 -524 290
-973 652 -1343 202 -209 393 -348 645 -472 231 -114 457 -184 714 -222 161
-23 485 -23 645 0 548 82 1048 347 1415 751 722 795 811 1980 216 2871 -267
400 -647 711 -1082 884 -343 136 -725 192 -1093 160z m440 -329 c474 -57 891
-259 1212 -586 164 -168 259 -298 362 -497 343 -662 296 -1443 -124 -2066 -59
-86 -125 -166 -218 -262 -74 -77 -139 -139 -146 -139 -6 0 -27 26 -45 58 -176
299 -472 539 -796 648 -215 72 -483 93 -700 56 -358 -62 -670 -242 -895 -517
-57 -69 -140 -194 -153 -227 -3 -10 -12 -18 -20 -18 -20 0 -192 174 -278 281
-234 294 -381 648 -429 1029 -5 46 -10 150 -10 230 0 236 31 423 105 649 240
720 886 1252 1645 1356 117 16 376 19 490 5z m3 -3116 c329 -68 613 -277 772
-566 l36 -67 -43 -25 c-147 -86 -397 -180 -573 -215 -291 -58 -600 -55 -871 9
-179 42 -393 125 -532 206 l-43 25 32 57 c189 336 497 545 869 591 92 12 261
4 353 -15z"/>
<path d="M2965 4200 c-213 -24 -406 -119 -552 -273 -116 -123 -178 -231 -225
-393 -19 -68 -23 -101 -22 -234 1 -138 3 -164 27 -243 109 -357 403 -604 770
-648 216 -25 457 39 627 168 256 194 384 466 367 782 -16 313 -199 595 -482
744 -151 80 -342 116 -510 97z m224 -335 c106 -25 188 -72 272 -155 119 -117
172 -242 172 -405 0 -370 -336 -639 -701 -561 -197 43 -368 206 -428 411 -25
85 -23 230 5 315 47 148 149 271 281 340 132 68 265 86 399 55z"/>
</g>
</svg>
